<svg width="56" height="57" viewBox="0 0 56 57" fill="none" xmlns="http://www.w3.org/2000/svg">
<path d="M30.9915 9.19012L30.9769 17.7314L30.962 26.2728L30.2716 24.29L30.2703 24.2862L29.3782 43.3015C30.2554 45.8229 30.7253 47.1688 30.7305 47.1742C30.7373 47.1813 31.2374 47.212 31.8414 47.2425C33.6714 47.3349 35.9394 47.5329 37.6599 47.7506C38.0582 47.8009 38.401 47.8268 38.4218 47.8078C38.4424 47.7891 38.4535 39.0924 38.4467 28.482L38.434 9.19012H30.9915Z" fill="#B1060F" stroke="black" stroke-width="0.611984"/>
<path d="M17.5303 9.16454V28.476C17.5303 39.0973 17.5406 47.7978 17.553 47.8105C17.5655 47.8232 18.2117 47.7611 18.9891 47.6725C19.7663 47.5839 20.8408 47.4737 21.3766 47.4276C22.1982 47.357 24.6512 47.1964 24.9352 47.1947C25.0179 47.1942 25.0231 46.7605 25.0351 39.0154L25.0478 30.8363L25.6413 32.5457L25.8513 33.1497L26.7431 14.1391L26.4367 13.2574C25.9789 11.9396 25.5208 10.6219 25.0623 9.30437L25.0131 9.16454H17.5303Z" fill="#B1060F" stroke="black" stroke-width="0.611984"/>
<path d="M17.5303 9.16454V20.0046L25.0325 40.2609C25.0334 39.7967 25.0343 39.546 25.0351 39.0154L25.0478 30.8363L25.6413 32.5457C28.9453 42.0616 30.7202 47.1635 30.7307 47.1742C30.7375 47.1813 31.2376 47.212 31.8416 47.2425C33.6716 47.3349 35.9396 47.5329 37.6601 47.7506C38.0584 47.801 38.4012 47.8268 38.422 47.8079C38.436 47.7949 38.4454 43.5306 38.4478 37.5151L30.9806 15.6637L30.9771 17.7315L30.9622 26.2728L30.2718 24.29C29.5972 22.3527 29.1468 21.0571 26.4367 13.2574C25.9789 11.9396 25.5208 10.6219 25.0623 9.30437L25.0131 9.16454H17.5303Z" fill="url(#paint0_radial_1_316)"/>
<path d="M17.5303 9.16454L25.0476 30.8461V30.8363L25.6411 32.5457C28.9451 42.0616 30.72 47.1635 30.7305 47.1742C30.7373 47.1813 31.2374 47.212 31.8413 47.2425C33.6714 47.3349 35.9394 47.5329 37.6599 47.7506C38.0562 47.8007 38.3971 47.8264 38.4211 47.8081L30.9617 26.269V26.2728L30.2714 24.29C29.5967 22.3527 29.1463 21.0571 26.4362 13.2574C25.7074 11.16 25.089 9.38141 25.0618 9.30437L25.0126 9.16454H17.5303Z" fill="#E50914"/>
<path d="M30.9915 9.19012L30.9769 17.7314L30.962 26.2728L30.2716 24.29L30.2703 24.2862L29.3782 43.3015C30.2554 45.8229 30.7253 47.1688 30.7305 47.1742C30.7373 47.1813 31.2374 47.212 31.8414 47.2425C33.6714 47.3349 35.9394 47.5329 37.6599 47.7506C38.0582 47.8009 38.401 47.8268 38.4218 47.8078C38.4424 47.7891 38.4535 39.0924 38.4467 28.482L38.434 9.19012H30.9915Z" fill="#B1060F" stroke="black" stroke-width="0.611984"/>
<path d="M17.5303 9.16454V28.476C17.5303 39.0973 17.5406 47.7978 17.553 47.8105C17.5655 47.8232 18.2117 47.7611 18.9891 47.6725C19.7663 47.5839 20.8408 47.4737 21.3766 47.4276C22.1982 47.357 24.6512 47.1964 24.9352 47.1947C25.0179 47.1942 25.0231 46.7605 25.0351 39.0154L25.0478 30.8363L25.6413 32.5457L25.8513 33.1497L26.7431 14.1391L26.4367 13.2574C25.9789 11.9396 25.5208 10.6219 25.0623 9.30437L25.0131 9.16454H17.5303Z" fill="#B1060F" stroke="black" stroke-width="0.611984"/>
<path d="M17.5303 9.16454V20.0046L25.0325 40.2609C25.0334 39.7967 25.0343 39.546 25.0351 39.0154L25.0478 30.8363L25.6413 32.5457C28.9453 42.0616 30.7202 47.1635 30.7307 47.1742C30.7375 47.1813 31.2376 47.212 31.8416 47.2425C33.6716 47.3349 35.9396 47.5329 37.6601 47.7506C38.0584 47.801 38.4012 47.8268 38.422 47.8079C38.436 47.7949 38.4454 43.5306 38.4478 37.5151L30.9806 15.6637L30.9771 17.7315L30.9622 26.2728L30.2718 24.29C29.5972 22.3527 29.1468 21.0571 26.4367 13.2574C25.9789 11.9396 25.5208 10.6219 25.0623 9.30437L25.0131 9.16454H17.5303Z" fill="url(#paint1_radial_1_316)"/>
<path d="M17.5303 9.16454L25.0476 30.8461V30.8363L25.6411 32.5457C28.9451 42.0616 30.72 47.1635 30.7305 47.1742C30.7373 47.1813 31.2374 47.212 31.8413 47.2425C33.6714 47.3349 35.9394 47.5329 37.6599 47.7506C38.0562 47.8007 38.3971 47.8264 38.4211 47.8081L30.9617 26.269V26.2728L30.2714 24.29C29.5967 22.3527 29.1463 21.0571 26.4362 13.2574C25.7074 11.16 25.089 9.38141 25.0618 9.30437L25.0126 9.16454H17.5303Z" fill="#E50914"/>
<defs>
<radialGradient id="paint0_radial_1_316" cx="0" cy="0" r="1" gradientUnits="userSpaceOnUse" gradientTransform="translate(27.6418 15.6199) scale(14.7339 14.9971)">
<stop/>
<stop offset="1" stop-opacity="0"/>
</radialGradient>
<radialGradient id="paint1_radial_1_316" cx="0" cy="0" r="1" gradientUnits="userSpaceOnUse" gradientTransform="translate(27.6418 15.6199) scale(14.7339 14.9971)">
<stop/>
<stop offset="1" stop-opacity="0"/>
</radialGradient>
</defs>
</svg>
